<svg xmlns="http://www.w3.org/2000/svg" viewBox="0 0 512 512">
  <rect width="512" height="512" rx="108" fill="#050505"/>
  <circle cx="161" cy="145" r="82" fill="#050505" stroke="#f5c010" stroke-width="18"/>
  <circle cx="351" cy="145" r="82" fill="#050505" stroke="#f5c010" stroke-width="18"/>
  <ellipse cx="256" cy="270" rx="184" ry="176" fill="#f2f2ef"/>
  <ellipse cx="184" cy="246" rx="56" ry="72" transform="rotate(26 184 246)" fill="#050505"/>
  <ellipse cx="328" cy="246" rx="56" ry="72" transform="rotate(-26 328 246)" fill="#050505"/>
  <circle cx="193" cy="240" r="18" fill="#f2f2ef"/>
  <circle cx="319" cy="240" r="18" fill="#f2f2ef"/>
  <circle cx="193" cy="240" r="9" fill="#050505"/>
  <circle cx="319" cy="240" r="9" fill="#050505"/>
  <ellipse cx="256" cy="314" rx="31" ry="23" fill="#050505"/>
  <path d="M256 334c-8 36-52 42-74 13m74-13c8 36 52 42 74 13" fill="none" stroke="#050505" stroke-width="16" stroke-linecap="round"/>
  <path d="M211 402c29 22 61 22 90 0" fill="none" stroke="#050505" stroke-width="14" stroke-linecap="round"/>
  <rect x="72" y="438" width="368" height="30" rx="15" fill="#f5c010"/>
</svg>
